#N canvas 397 141 572 609 10;
#X msg 167 81 close;
#X msg 167 61 devices;
#X msg 88 101 open 2;
#X msg 88 81 open 1;
#X msg 88 61 open 0;
#X msg 88 121 open 3;
#X msg 88 141 open 4;
#X floatatom 168 120 5 0 0 0 - - -, f 5;
#X msg 168 140 open \$1;
#X obj 88 229 comport 1 9600;
#X obj 251 270 / 1023;
#X obj 197 270 / 1023;
#X obj 142 270 / 1023;
#X obj 88 271 / 1023;
#N canvas 255 124 577 640 _________translate_serial_packets__________
0;
#X obj 84 93 sel 65;
#X obj 84 120 t b b;
#X obj 129 120 t b a;
#X obj 192 207 t a a;
#X msg 255 163 65;
#X obj 241 427 - 48;
#N canvas 0 22 352 344 translate4charsTo1int 0;
#X obj 128 110 - 48;
#X obj 159 110 - 48;
#X obj 190 110 - 48;
#X obj 221 110 - 48;
#X obj 146 82 unpack f f f f;
#X obj 128 133 * 1000;
#X obj 158 153 * 100;
#X obj 191 133 * 10;
#X obj 206 161 +;
#X obj 174 192 +;
#X obj 147 216 +;
#X obj 132 31 inlet;
#X obj 138 254 outlet;
#X connect 0 0 5 0;
#X connect 1 0 6 0;
#X connect 2 0 7 0;
#X connect 3 0 8 1;
#X connect 4 0 0 0;
#X connect 4 1 1 0;
#X connect 4 2 2 0;
#X connect 4 3 3 0;
#X connect 5 0 10 0;
#X connect 6 0 9 0;
#X connect 7 0 8 0;
#X connect 8 0 9 1;
#X connect 9 0 10 1;
#X connect 10 0 12 0;
#X connect 11 0 4 0;
#X restore 304 427 pd translate4charsTo1int;
#X obj 102 43 inlet;
#X obj 190 557 outlet;
#X obj 234 557 outlet;
#X obj 279 557 outlet;
#X obj 323 557 outlet;
#X obj 368 557 outlet;
#X obj 413 557 outlet;
#X obj 241 471 route 0 1 2 3 4 5;
#X obj 110 181 float;
#X obj 110 225 + 1;
#X obj 110 203 % 5;
#X obj 110 161 bng 15 250 50 0 empty empty empty 17 7 0 10 -262144
-1 -1;
#X msg 137 159 0;
#X obj 192 185 list append;
#X obj 207 379 list split 1;
#X obj 241 401 list split 1;
#X obj 110 247 sel 5;
#X obj 207 308 list;
#X obj 241 449 list append;
#N canvas 0 22 401 450 list-reverse 0;
#X obj 161 219 list split 1;
#X obj 140 171 until;
#X obj 113 127 list length;
#X obj 157 306 list;
#X obj 199 254 list append;
#X obj 199 275 t a a;
#X obj 161 197 list;
#X obj 113 149 t b f;
#X obj 182 82 t a a b;
#X obj 153 336 outlet;
#X obj 176 57 inlet;
#X connect 0 0 4 0;
#X connect 0 1 6 1;
#X connect 1 0 6 0;
#X connect 2 0 7 0;
#X connect 3 0 9 0;
#X connect 4 0 5 0;
#X connect 5 0 3 1;
#X connect 5 1 4 1;
#X connect 6 0 0 0;
#X connect 7 0 3 0;
#X connect 7 1 1 0;
#X connect 8 0 2 0;
#X connect 8 1 6 1;
#X connect 8 2 4 1;
#X connect 10 0 8 0;
#X restore 207 343 pd list-reverse;
#X connect 0 0 1 0;
#X connect 0 1 2 0;
#X connect 1 0 4 0;
#X connect 1 1 19 0;
#X connect 2 0 18 0;
#X connect 2 1 20 0;
#X connect 3 0 24 1;
#X connect 3 1 20 1;
#X connect 4 0 20 1;
#X connect 5 0 25 0;
#X connect 6 0 25 1;
#X connect 7 0 0 0;
#X connect 14 0 8 0;
#X connect 14 1 9 0;
#X connect 14 2 10 0;
#X connect 14 3 11 0;
#X connect 14 4 12 0;
#X connect 14 5 13 0;
#X connect 15 0 17 0;
#X connect 16 0 15 1;
#X connect 16 0 23 0;
#X connect 17 0 16 0;
#X connect 18 0 15 0;
#X connect 19 0 15 1;
#X connect 20 0 3 0;
#X connect 21 1 22 0;
#X connect 22 0 5 0;
#X connect 22 1 6 0;
#X connect 23 0 24 0;
#X connect 24 0 26 0;
#X connect 25 0 14 0;
#X connect 26 0 21 0;
#X restore 88 250 pd _________translate_serial_packets__________;
#X obj 306 270 / 1023;
#X obj 88 294 vsl 15 128 0 1 0 0 empty empty A0 20 125 0 10 -262144
-1 -1 9460 0;
#X obj 361 270 / 1023;
#X obj 142 293 vsl 15 128 0 1 0 0 empty empty A1 20 125 0 10 -262144
-1 -1 1403 0;
#X obj 197 293 vsl 15 128 0 1 0 0 empty empty A2 20 125 0 10 -262144
-1 -1 0 0;
#X obj 251 293 vsl 15 128 0 1 0 0 empty empty A3 20 125 0 10 -262144
-1 -1 0 0;
#X obj 306 293 vsl 15 128 0 1 0 0 empty empty A4 20 125 0 10 -262144
-1 -1 0 0;
#X obj 361 293 vsl 15 128 0 1 0 0 empty empty A5 20 125 0 10 -262144
-1 -1 0 0;
#X text 221 61 1 : check your arduino's serial port #;
#X text 220 120 2 : open it to receive the analog inputs;
#X text 347 507 joseph larralde \, 2017;
#X text 129 461 This patch parses analog inputs from the analogsInToSerial
Arduino program it should have been distributed with.;
#X obj 88 179 t a;
#X obj 409 350 bng 15 250 50 0 empty empty empty 17 7 0 10 -262144
-1 -1;
#X connect 0 0 27 0;
#X connect 1 0 27 0;
#X connect 2 0 27 0;
#X connect 3 0 27 0;
#X connect 4 0 27 0;
#X connect 5 0 27 0;
#X connect 6 0 27 0;
#X connect 7 0 8 0;
#X connect 8 0 27 0;
#X connect 9 0 14 0;
#X connect 10 0 20 0;
#X connect 11 0 19 0;
#X connect 12 0 18 0;
#X connect 13 0 16 0;
#X connect 14 0 13 0;
#X connect 14 1 12 0;
#X connect 14 2 11 0;
#X connect 14 3 10 0;
#X connect 14 4 15 0;
#X connect 14 5 17 0;
#X connect 15 0 21 0;
#X connect 17 0 22 0;
#X connect 27 0 9 0;
