#N canvas 0 23 466 522 10;
#X msg -53 -102 close;
#X msg -53 -122 devices;
#X msg -132 -82 open 2;
#X msg -132 -102 open 1;
#X msg -132 -122 open 0;
#X msg -132 -62 open 3;
#X msg -132 -42 open 4;
#X floatatom -52 -63 5 0 0 0 - - -;
#X msg -52 -43 open \$1;
#X obj -132 46 comport 1 9600;
#X obj 31 87 / 1023;
#X obj -23 87 / 1023;
#X obj -78 87 / 1023;
#X obj -132 88 / 1023;
#N canvas 0 22 524 554 _________translate_serial_packets__________
0;
#X obj 74 66 sel 65;
#X obj 56 99 t b b;
#X obj 127 219 zl reg;
#X obj 111 184 sel 1;
#X obj 93 99 t b a;
#X obj 165 193 t a a;
#X obj 164 162 zl join;
#X msg 194 132 65;
#X obj 69 156 counter 1 5;
#X obj 129 248 zl rev;
#X obj 156 336 zl slice 1;
#X obj 213 361 zl slice 1;
#X obj 213 381 - 48;
#X obj 213 401 zl join;
#N canvas 0 22 352 344 translate4charsTo1int 0;
#X obj 128 110 - 48;
#X obj 159 110 - 48;
#X obj 190 110 - 48;
#X obj 221 110 - 48;
#X obj 146 82 unpack f f f f;
#X obj 128 133 * 1000;
#X obj 158 153 * 100;
#X obj 191 133 * 10;
#X obj 206 161 +;
#X obj 174 192 +;
#X obj 147 216 +;
#X obj 132 31 inlet;
#X obj 138 254 outlet;
#X connect 0 0 5 0;
#X connect 1 0 6 0;
#X connect 2 0 7 0;
#X connect 3 0 8 1;
#X connect 4 0 0 0;
#X connect 4 1 1 0;
#X connect 4 2 2 0;
#X connect 4 3 3 0;
#X connect 5 0 10 0;
#X connect 6 0 9 0;
#X connect 7 0 8 0;
#X connect 8 0 9 1;
#X connect 9 0 10 1;
#X connect 10 0 12 0;
#X connect 11 0 4 0;
#X restore 270 401 pd translate4charsTo1int;
#X obj 74 22 inlet;
#X obj 162 509 outlet;
#X obj 206 509 outlet;
#X obj 251 509 outlet;
#X obj 295 509 outlet;
#X obj 340 509 outlet;
#X obj 385 509 outlet;
#X obj 211 425 route 0 1 2 3 4 5;
#X connect 0 0 1 0;
#X connect 0 1 4 0;
#X connect 1 0 7 0;
#X connect 1 1 8 2;
#X connect 2 0 9 0;
#X connect 3 0 2 0;
#X connect 4 0 8 0;
#X connect 4 1 6 0;
#X connect 5 0 2 1;
#X connect 5 1 6 1;
#X connect 6 0 5 0;
#X connect 7 0 6 1;
#X connect 8 2 3 0;
#X connect 9 0 10 0;
#X connect 10 1 11 0;
#X connect 11 0 12 0;
#X connect 11 1 14 0;
#X connect 12 0 13 0;
#X connect 13 0 22 0;
#X connect 14 0 13 1;
#X connect 15 0 0 0;
#X connect 22 0 16 0;
#X connect 22 1 17 0;
#X connect 22 2 18 0;
#X connect 22 3 19 0;
#X connect 22 4 20 0;
#X connect 22 5 21 0;
#X restore -132 67 pd _________translate_serial_packets__________;
#X obj 86 87 / 1023;
#X obj -132 111 vsl 15 128 0 1 0 0 empty empty A0 20 125 0 10 -262144
-1 -1 0 0;
#X obj 141 87 / 1023;
#X obj -78 110 vsl 15 128 0 1 0 0 empty empty A1 20 125 0 10 -262144
-1 -1 0 0;
#X obj -23 110 vsl 15 128 0 1 0 0 empty empty A2 20 125 0 10 -262144
-1 -1 0 0;
#X obj 31 110 vsl 15 128 0 1 0 0 empty empty A3 20 125 0 10 -262144
-1 -1 0 0;
#X obj 86 110 vsl 15 128 0 1 0 0 empty empty A4 20 125 0 10 -262144
-1 -1 0 0;
#X obj 141 110 vsl 15 128 0 1 0 0 empty empty A5 20 125 0 10 -262144
-1 -1 0 0;
#X text 1 -122 1 : check your arduino's serial port #;
#X text 0 -63 2 : open it to receive the analog inputs;
#X text 127 324 joseph larralde \, 2017;
#X text -91 278 This patch parses analog inputs from the analogsInToSerial
Arduino program it should have been distributed with.;
#X obj -132 -4 t a;
#X connect 0 0 27 0;
#X connect 1 0 27 0;
#X connect 2 0 27 0;
#X connect 3 0 27 0;
#X connect 4 0 27 0;
#X connect 5 0 27 0;
#X connect 6 0 27 0;
#X connect 7 0 8 0;
#X connect 8 0 27 0;
#X connect 9 0 14 0;
#X connect 10 0 20 0;
#X connect 11 0 19 0;
#X connect 12 0 18 0;
#X connect 13 0 16 0;
#X connect 14 0 13 0;
#X connect 14 1 12 0;
#X connect 14 2 11 0;
#X connect 14 3 10 0;
#X connect 14 4 15 0;
#X connect 14 5 17 0;
#X connect 15 0 21 0;
#X connect 17 0 22 0;
#X connect 27 0 9 0;
